<svg xmlns="http://www.w3.org/2000/svg" version="1.1" xmlns:xlink="http://www.w3.org/1999/xlink" xmlns:svgjs="http://svgjs.dev/svgjs" width="2000" height="1500" viewBox="0 0 2000 1500"><rect width="2000" height="1500" fill="#000000"></rect><g transform="matrix(0.75,0,0,0.75,249.090909090909,282.7536437246963)"><svg viewBox="0 0 396 247" data-background-color="#000000" preserveAspectRatio="xMidYMid meet" height="1247" width="2000" xmlns="http://www.w3.org/2000/svg" xmlns:xlink="http://www.w3.org/1999/xlink"><g id="tight-bounds" transform="matrix(1,0,0,1,0.2400000000000091,-0.09999999999999432)"><svg viewBox="0 0 395.52 247.2" height="247.2" width="395.52"><rect width="395.52" height="247.2" fill="url(#0edbf32b-56cf-43e4-9bbf-9386ca852963)" mask="url(#65d805d9-4663-4c52-9c63-603e33c27985)" data-fill-palette-color="tertiary"></rect><g><svg></svg></g><g><svg viewBox="0 0 395.52 247.2" height="247.2" width="395.52"><g transform="matrix(1,0,0,1,76.98693849878934,47.215199999999996)"><svg viewBox="0 0 241.5461230024213 152.7696" height="152.7696" width="241.5461230024213"><g><svg viewBox="0 0 241.5461230024213 152.7696" height="152.7696" width="241.5461230024213"><g><svg viewBox="0 0 241.5461230024213 152.7696" height="152.7696" width="241.5461230024213"><g><svg viewBox="0 0 241.5461230024213 152.7696" height="152.7696" width="241.5461230024213"><g id="textblocktransform"><svg viewBox="0 0 241.5461230024213 152.7696" height="152.7696" width="241.5461230024213" id="textblock"><g><svg viewBox="0 0 241.5461230024213 152.7696" height="152.7696" width="241.5461230024213"><g transform="matrix(1,0,0,1,0,0)"><svg width="241.5461230024213" viewBox="3.15 -40.85 65.3 41.300000000000004" height="152.7696" data-palette-color="url(#14654e40-09b0-4591-9edb-216960fc7c1a)"></svg></g></svg></g></svg></g></svg></g></svg></g></svg></g></svg></g><g><path d="M0 123.6c0-68.262 55.338-123.6 123.6-123.6 30.402 0 58.24 10.976 79.768 29.183l-11.147 0c-19.26-14.022-42.974-22.294-68.621-22.295-64.458 0-116.712 52.254-116.712 116.712 0 64.458 52.254 116.712 116.712 116.712 25.647 0 49.361-8.272 68.621-22.295h11.147c-21.528 18.206-49.366 29.183-79.768 29.183-68.262 0-123.6-55.338-123.6-123.6z" fill="url(#0edbf32b-56cf-43e4-9bbf-9386ca852963)" stroke="transparent" data-fill-palette-color="tertiary"></path></g></svg></g><defs></defs><mask id="2931862a-7a66-4623-8310-a6c19168dfee"><g id="SvgjsG1003"><svg viewBox="0 0 395.52 247.2" height="247.2" width="395.52"><g><svg></svg></g><g><svg viewBox="0 0 395.52 247.2" height="247.2" width="395.52"><g transform="matrix(1,0,0,1,76.98693849878934,47.215199999999996)"><svg viewBox="0 0 241.5461230024213 152.7696" height="152.7696" width="241.5461230024213"><g><svg viewBox="0 0 241.5461230024213 152.7696" height="152.7696" width="241.5461230024213"><g><svg viewBox="0 0 241.5461230024213 152.7696" height="152.7696" width="241.5461230024213"><g><svg viewBox="0 0 241.5461230024213 152.7696" height="152.7696" width="241.5461230024213"><g id="SvgjsG1002"><svg viewBox="0 0 241.5461230024213 152.7696" height="152.7696" width="241.5461230024213" id="SvgjsSvg1001"><g><svg viewBox="0 0 241.5461230024213 152.7696" height="152.7696" width="241.5461230024213"><g transform="matrix(1,0,0,1,0,0)"><svg width="241.5461230024213" viewBox="3.15 -40.85 65.3 41.300000000000004" height="152.7696" data-palette-color="url(#14654e40-09b0-4591-9edb-216960fc7c1a)"><path d="M13.95 0L3.15 0 3.15-40.5 12.45-40.5Q15.2-40.5 17.23-39.9 19.25-39.3 20.6-38.05 21.95-36.8 22.6-34.88 23.25-32.95 23.25-30.35L23.25-30.35Q23.25-27.85 22.63-26.03 22-24.2 20.73-23.15 19.45-22.1 17.45-21.8L17.45-21.8Q19.9-21.25 21.4-19.93 22.9-18.6 23.63-16.53 24.35-14.45 24.35-11.55L24.35-11.55Q24.35-8.95 23.75-6.8 23.15-4.65 21.88-3.15 20.6-1.65 18.63-0.83 16.65 0 13.95 0L13.95 0ZM8.8-19.3L8.8-4.05 12.6-4.05Q16.4-4.05 17.68-5.83 18.95-7.6 18.95-11.55L18.95-11.55Q18.95-14.1 18.28-15.83 17.6-17.55 16.13-18.43 14.65-19.3 12.15-19.3L12.15-19.3 8.8-19.3ZM8.8-36.3L8.8-23.6 12.15-23.6Q14.55-23.6 15.9-24.28 17.25-24.95 17.8-26.45 18.35-27.95 18.35-30.35L18.35-30.35Q18.35-33.15 17.5-34.4 16.65-35.65 14.85-35.98 13.05-36.3 10.15-36.3L10.15-36.3 8.8-36.3ZM45.35 0L29.35 0 29.35-40.5 35-40.5 35-4.05 45.35-4.05 45.35 0ZM58.75 0.45L58.75 0.45Q55.25 0.45 52.92-1.05 50.59-2.55 49.4-5.2 48.2-7.85 48-11.35L48-11.35 53-12.7Q53.15-10.55 53.67-8.55 54.2-6.55 55.4-5.28 56.59-4 58.75-4L58.75-4Q60.95-4 62.07-5.23 63.2-6.45 63.2-8.75L63.2-8.75Q63.2-11.5 61.95-13.18 60.7-14.85 58.8-16.55L58.8-16.55 52-22.55Q50-24.3 49.05-26.38 48.09-28.45 48.09-31.5L48.09-31.5Q48.09-35.95 50.65-38.4 53.2-40.85 57.59-40.85L57.59-40.85Q60-40.85 61.82-40.23 63.65-39.6 64.87-38.3 66.09-37 66.82-35.02 67.55-33.05 67.8-30.4L67.8-30.4 63-29.1Q62.84-31.1 62.4-32.77 61.95-34.45 60.82-35.48 59.7-36.5 57.59-36.5L57.59-36.5Q55.5-36.5 54.32-35.38 53.15-34.25 53.15-32.05L53.15-32.05Q53.15-30.2 53.77-29 54.4-27.8 55.8-26.55L55.8-26.55 62.65-20.55Q64.95-18.55 66.7-15.78 68.45-13 68.45-9.2L68.45-9.2Q68.45-6.2 67.2-4.03 65.95-1.85 63.77-0.7 61.59 0.45 58.75 0.45Z" opacity="1" transform="matrix(1,0,0,1,0,0)" fill="white" class="wordmark-text-0" id="SvgjsPath1000"></path></svg></g></svg></g></svg></g></svg></g></svg></g></svg></g></svg></g><g><path d="M0 123.6c0-68.262 55.338-123.6 123.6-123.6 30.402 0 58.24 10.976 79.768 29.183l-11.147 0c-19.26-14.022-42.974-22.294-68.621-22.295-64.458 0-116.712 52.254-116.712 116.712 0 64.458 52.254 116.712 116.712 116.712 25.647 0 49.361-8.272 68.621-22.295h11.147c-21.528 18.206-49.366 29.183-79.768 29.183-68.262 0-123.6-55.338-123.6-123.6z" fill="black" stroke="transparent"></path></g></svg></g><defs><mask></mask></defs></svg><rect width="395.52" height="247.2" fill="black" stroke="none" visibility="hidden"></rect></g></mask><linearGradient x1="0" x2="1" y1="0.548" y2="0.55" id="14654e40-09b0-4591-9edb-216960fc7c1a"><stop stop-color="#ff6cab" offset="0"></stop><stop stop-color="#7366ff" offset="1"></stop></linearGradient><rect width="395.52" height="247.2" fill="url(#14654e40-09b0-4591-9edb-216960fc7c1a)" mask="url(#2931862a-7a66-4623-8310-a6c19168dfee)" data-fill-palette-color="primary"></rect><mask id="65d805d9-4663-4c52-9c63-603e33c27985"><g id="SvgjsG1026"><svg viewBox="0 0 395.52 247.2" height="247.2" width="395.52"><g><svg></svg></g><g><svg viewBox="0 0 395.52 247.2" height="247.2" width="395.52"><g transform="matrix(1,0,0,1,76.98693849878934,47.215199999999996)"><svg viewBox="0 0 241.5461230024213 152.7696" height="152.7696" width="241.5461230024213"><g><svg viewBox="0 0 241.5461230024213 152.7696" height="152.7696" width="241.5461230024213"><g><svg viewBox="0 0 241.5461230024213 152.7696" height="152.7696" width="241.5461230024213"><g><svg viewBox="0 0 241.5461230024213 152.7696" height="152.7696" width="241.5461230024213"><g id="SvgjsG1025"><svg viewBox="0 0 241.5461230024213 152.7696" height="152.7696" width="241.5461230024213" id="SvgjsSvg1024"><g><svg viewBox="0 0 241.5461230024213 152.7696" height="152.7696" width="241.5461230024213"><g transform="matrix(1,0,0,1,0,0)"><svg width="241.5461230024213" viewBox="3.15 -40.85 65.3 41.300000000000004" height="152.7696" data-palette-color="url(#14654e40-09b0-4591-9edb-216960fc7c1a)"></svg></g></svg></g></svg></g></svg></g></svg></g></svg></g></svg></g><g><path d="M0 123.6c0-68.262 55.338-123.6 123.6-123.6 30.402 0 58.24 10.976 79.768 29.183l-11.147 0c-19.26-14.022-42.974-22.294-68.621-22.295-64.458 0-116.712 52.254-116.712 116.712 0 64.458 52.254 116.712 116.712 116.712 25.647 0 49.361-8.272 68.621-22.295h11.147c-21.528 18.206-49.366 29.183-79.768 29.183-68.262 0-123.6-55.338-123.6-123.6z" fill="white" stroke="transparent"></path></g></svg></g><defs><mask></mask></defs><mask><g id="SvgjsG1023"><svg viewBox="0 0 395.52 247.2" height="247.2" width="395.52"><g><svg></svg></g><g><svg viewBox="0 0 395.52 247.2" height="247.2" width="395.52"><g transform="matrix(1,0,0,1,76.98693849878934,47.215199999999996)"><svg viewBox="0 0 241.5461230024213 152.7696" height="152.7696" width="241.5461230024213"><g><svg viewBox="0 0 241.5461230024213 152.7696" height="152.7696" width="241.5461230024213"><g><svg viewBox="0 0 241.5461230024213 152.7696" height="152.7696" width="241.5461230024213"><g><svg viewBox="0 0 241.5461230024213 152.7696" height="152.7696" width="241.5461230024213"><g id="SvgjsG1022"><svg viewBox="0 0 241.5461230024213 152.7696" height="152.7696" width="241.5461230024213" id="SvgjsSvg1021"><g><svg viewBox="0 0 241.5461230024213 152.7696" height="152.7696" width="241.5461230024213"><g transform="matrix(1,0,0,1,0,0)"><svg width="241.5461230024213" viewBox="3.15 -40.85 65.3 41.300000000000004" height="152.7696" data-palette-color="url(#14654e40-09b0-4591-9edb-216960fc7c1a)"><path d="M13.95 0L3.15 0 3.15-40.5 12.45-40.5Q15.2-40.5 17.23-39.9 19.25-39.3 20.6-38.05 21.95-36.8 22.6-34.88 23.25-32.95 23.25-30.35L23.25-30.35Q23.25-27.85 22.63-26.03 22-24.2 20.73-23.15 19.45-22.1 17.45-21.8L17.45-21.8Q19.9-21.25 21.4-19.93 22.9-18.6 23.63-16.53 24.35-14.45 24.35-11.55L24.35-11.55Q24.35-8.95 23.75-6.8 23.15-4.65 21.88-3.15 20.6-1.65 18.63-0.83 16.65 0 13.95 0L13.95 0ZM8.8-19.3L8.8-4.05 12.6-4.05Q16.4-4.05 17.68-5.83 18.95-7.6 18.95-11.55L18.95-11.55Q18.95-14.1 18.28-15.83 17.6-17.55 16.13-18.43 14.65-19.3 12.15-19.3L12.15-19.3 8.8-19.3ZM8.8-36.3L8.8-23.6 12.15-23.6Q14.55-23.6 15.9-24.28 17.25-24.95 17.8-26.45 18.35-27.95 18.35-30.35L18.35-30.35Q18.35-33.15 17.5-34.4 16.65-35.65 14.85-35.98 13.05-36.3 10.15-36.3L10.15-36.3 8.8-36.3ZM45.35 0L29.35 0 29.35-40.5 35-40.5 35-4.05 45.35-4.05 45.35 0ZM58.75 0.45L58.75 0.45Q55.25 0.45 52.92-1.05 50.59-2.55 49.4-5.2 48.2-7.85 48-11.35L48-11.35 53-12.7Q53.15-10.55 53.67-8.55 54.2-6.55 55.4-5.28 56.59-4 58.75-4L58.75-4Q60.95-4 62.07-5.23 63.2-6.45 63.2-8.75L63.2-8.75Q63.2-11.5 61.95-13.18 60.7-14.85 58.8-16.55L58.8-16.55 52-22.55Q50-24.3 49.05-26.38 48.09-28.45 48.09-31.5L48.09-31.5Q48.09-35.95 50.65-38.4 53.2-40.85 57.59-40.85L57.59-40.85Q60-40.85 61.82-40.23 63.65-39.6 64.87-38.3 66.09-37 66.82-35.02 67.55-33.05 67.8-30.4L67.8-30.4 63-29.1Q62.84-31.1 62.4-32.77 61.95-34.45 60.82-35.48 59.7-36.5 57.59-36.5L57.59-36.5Q55.5-36.5 54.32-35.38 53.15-34.25 53.15-32.05L53.15-32.05Q53.15-30.2 53.77-29 54.4-27.8 55.8-26.55L55.8-26.55 62.65-20.55Q64.95-18.55 66.7-15.78 68.45-13 68.45-9.2L68.45-9.2Q68.45-6.2 67.2-4.03 65.95-1.85 63.77-0.7 61.59 0.45 58.75 0.45Z" opacity="1" transform="matrix(1,0,0,1,0,0)" fill="black" class="wordmark-text-0" id="SvgjsPath1020"></path></svg></g></svg></g></svg></g></svg></g></svg></g></svg></g></svg></g><g><path d="M0 123.6c0-68.262 55.338-123.6 123.6-123.6 30.402 0 58.24 10.976 79.768 29.183l-11.147 0c-19.26-14.022-42.974-22.294-68.621-22.295-64.458 0-116.712 52.254-116.712 116.712 0 64.458 52.254 116.712 116.712 116.712 25.647 0 49.361-8.272 68.621-22.295h11.147c-21.528 18.206-49.366 29.183-79.768 29.183-68.262 0-123.6-55.338-123.6-123.6z" fill="black" stroke="transparent"></path></g></svg></g><defs><mask></mask></defs></svg><rect width="395.52" height="247.2" fill="black" stroke="none" visibility="hidden"></rect></g></mask></svg><rect width="395.52" height="247.2" fill="black" stroke="none" visibility="hidden"></rect></g></mask><linearGradient x1="0" x2="1" y1="0.548" y2="0.55" id="0edbf32b-56cf-43e4-9bbf-9386ca852963"><stop stop-color="#ff6cab" offset="0"></stop><stop stop-color="#7366ff" offset="1"></stop></linearGradient></svg><rect width="395.52" height="247.2" fill="none" stroke="none" visibility="hidden"></rect></g></svg></g></svg>