<svg xmlns="http://www.w3.org/2000/svg" version="1.1" xmlns:xlink="http://www.w3.org/1999/xlink" xmlns:svgjs="http://svgjs.dev/svgjs" width="2000" height="263" viewBox="0 0 2000 263"><g transform="matrix(1,0,0,1,0.17711934831834242,-0.6482950000000756)"><svg viewBox="0 0 380 50" data-background-color="#ffffff" preserveAspectRatio="xMidYMid meet" height="263" width="2000" xmlns="http://www.w3.org/2000/svg" xmlns:xlink="http://www.w3.org/1999/xlink"><g id="tight-bounds" transform="matrix(1,0,0,1,-0.03365267618048051,0.12325000000001296)"><svg viewBox="0 0 380.06730535236096 49.753499999999995" height="49.753499999999995" width="380.06730535236096"><g><svg viewBox="0 0 380.06730535236096 49.753499999999995" height="49.753499999999995" width="380.06730535236096"><g><svg viewBox="0 0 380.06730535236096 49.753499999999995" height="49.753499999999995" width="380.06730535236096"><g id="textblocktransform"><svg viewBox="0 0 380.06730535236096 49.753499999999995" height="49.753499999999995" width="380.06730535236096" id="textblock"><g><svg viewBox="0 0 380.06730535236096 49.753499999999995" height="49.753499999999995" width="380.06730535236096"><g><svg><g></g><g></g></svg></g><g><svg><g><svg></svg></g><g></g></svg></g><g id="text-0"><svg viewBox="0 0 380.06730535236096 49.753499999999995" height="49.753499999999995" width="380.06730535236096"><g transform="matrix(1,0,0,1,0,6.076749999999997)"><svg width="127.20000000000002" viewBox="5.25 -37.1 127.19 37.4" height="37.4" data-palette-color="#000000"><path d="M30.35-35L35.35-35 35.35 0 30.35 0 30.35-15.6 10.25-15.6 10.25 0 5.25 0 5.25-35 10.25-35 10.25-19.95 30.35-19.95 30.35-35ZM57.1-3.9Q61.85-3.9 64.75-7.1L64.75-7.1 67.35-4Q65.6-1.9 62.92-0.8 60.25 0.3 56.95 0.3L56.95 0.3Q52.75 0.3 49.5-1.43 46.25-3.15 44.47-6.25 42.7-9.35 42.7-13.25L42.7-13.25Q42.7-17.1 44.42-20.2 46.15-23.3 49.17-25.03 52.2-26.75 56-26.75L56-26.75Q59.6-26.75 62.55-25.13 65.5-23.5 67.25-20.55 69-17.6 69.05-13.75L69.05-13.75 48-9.65Q49-6.9 51.37-5.4 53.75-3.9 57.1-3.9L57.1-3.9ZM56-22.7Q53.5-22.7 51.52-21.55 49.55-20.4 48.45-18.32 47.35-16.25 47.35-13.5L47.35-13.5 47.35-13 64.3-16.2Q63.65-19.1 61.4-20.9 59.15-22.7 56-22.7L56-22.7ZM83.8 0.3Q79.95 0.3 77.85-1.83 75.75-3.95 75.75-7.8L75.75-7.8 75.75-37.1 80.55-37.1 80.55-8.2Q80.55-6.05 81.57-4.9 82.6-3.75 84.65-3.75L84.65-3.75Q85.9-3.75 87-4.25L87-4.25 87.25-0.3Q85.6 0.3 83.8 0.3L83.8 0.3ZM99.84 0.3Q95.99 0.3 93.89-1.83 91.79-3.95 91.79-7.8L91.79-7.8 91.79-37.1 96.59-37.1 96.59-8.2Q96.59-6.05 97.62-4.9 98.64-3.75 100.69-3.75L100.69-3.75Q101.94-3.75 103.04-4.25L103.04-4.25 103.29-0.3Q101.64 0.3 99.84 0.3L99.84 0.3ZM118.69 0.3Q114.74 0.3 111.59-1.45 108.44-3.2 106.67-6.28 104.89-9.35 104.89-13.25L104.89-13.25Q104.89-17.15 106.67-20.23 108.44-23.3 111.59-25.03 114.74-26.75 118.69-26.75L118.69-26.75Q122.64-26.75 125.77-25.03 128.89-23.3 130.67-20.23 132.44-17.15 132.44-13.25L132.44-13.25Q132.44-9.35 130.67-6.28 128.89-3.2 125.77-1.45 122.64 0.3 118.69 0.3L118.69 0.3ZM118.69-3.9Q121.24-3.9 123.27-5.08 125.29-6.25 126.44-8.38 127.59-10.5 127.59-13.25L127.59-13.25Q127.59-16 126.44-18.13 125.29-20.25 123.27-21.4 121.24-22.55 118.69-22.55L118.69-22.55Q116.14-22.55 114.12-21.4 112.09-20.25 110.92-18.13 109.74-16 109.74-13.25L109.74-13.25Q109.74-10.5 110.92-8.38 112.09-6.25 114.12-5.08 116.14-3.9 118.69-3.9L118.69-3.9Z" opacity="1" transform="matrix(1,0,0,1,0,0)" fill="#000000" class="undefined-yy-0"></path></svg></g><g><svg xmlns="http://www.w3.org/2000/svg" xmlns:xlink="http://www.w3.org/1999/xlink" version="1.1" x="141.525" y="0" viewBox="15.991999999999997 27 68.01500008003524 46.56818207408713" enable-background="new 0 0 100 100" xml:space="preserve" height="49.753499999999995" width="72.667305352361" class="icon-cg-0" data-fill-palette-color="accent" id="cg-0"><path d="M63.08 33.979c-1.294 0-2.562 0.089-3.791 0.258-0.1 0.014-0.186 0.076-0.229 0.166-0.044 0.09-0.039 0.196 0.012 0.283 1.439 2.441 2.265 5.152 2.265 8.012 0 7.441-5.48 13.959-13.497 17.124-0.1 0.039-0.171 0.128-0.187 0.233-0.017 0.105 0.024 0.212 0.107 0.278 3.334 2.688 7.905 4.497 13.04 4.914 0.095 0.008 0.181 0.053 0.241 0.125 0.06 0.072 0.088 0.166 0.078 0.26-0.331 3.059-0.961 6.038-1.298 7.51-0.033 0.144 0.027 0.293 0.152 0.372 0.124 0.079 0.285 0.071 0.401-0.02 4.522-3.521 7.453-6.944 8.806-8.684 0.073-0.094 0.175-0.159 0.291-0.187 8.432-2.025 14.536-7.952 14.536-14.95C84.008 41.006 74.638 33.979 63.08 33.979z" fill="#f97809" data-fill-palette-color="accent"></path><path d="M57.85 42.697C57.85 34.028 48.479 27 36.922 27c-11.559 0-20.93 7.028-20.93 15.697 0 6.997 6.106 12.927 14.538 14.952 0.114 0.027 0.217 0.094 0.29 0.187 1.354 1.735 4.284 5.159 8.807 8.68 0.116 0.091 0.277 0.099 0.402 0.019 0.124-0.079 0.186-0.228 0.152-0.372-0.339-1.471-0.97-4.447-1.301-7.507-0.01-0.094 0.019-0.188 0.078-0.26 0.061-0.072 0.146-0.118 0.24-0.125C49.682 57.415 57.85 50.785 57.85 42.697z" fill="#f97809" data-fill-palette-color="accent"></path></svg></g><g transform="matrix(1,0,0,1,228.517305352361,6.126749999999998)"><svg width="151.55" viewBox="4.95 -37.1 151.54000000000002 37.5" height="37.5" data-palette-color="#000000"><path d="M49.55-35L54.55-35 54.55-13.95Q54.55-6.85 51.03-3.23 47.5 0.4 40.95 0.4L40.95 0.4Q37.1 0.4 34.18-0.98 31.25-2.35 29.7-4.75L29.7-4.75Q28.1-2.35 25.25-0.98 22.4 0.4 18.5 0.4L18.5 0.4Q11.95 0.4 8.45-3.23 4.95-6.85 4.95-13.95L4.95-13.95 4.95-35 9.95-35 9.95-14.1Q9.95-4.05 18.5-4.05L18.5-4.05Q22.65-4.05 24.95-6.5 27.25-8.95 27.25-14.1L27.25-14.1 27.25-35 32.25-35 32.25-14.1Q32.25-8.95 34.52-6.5 36.8-4.05 40.95-4.05L40.95-4.05Q49.55-4.05 49.55-14.1L49.55-14.1 49.55-35ZM75.4 0.3Q71.45 0.3 68.3-1.45 65.15-3.2 63.37-6.28 61.6-9.35 61.6-13.25L61.6-13.25Q61.6-17.15 63.37-20.23 65.15-23.3 68.3-25.03 71.45-26.75 75.4-26.75L75.4-26.75Q79.35-26.75 82.47-25.03 85.6-23.3 87.37-20.23 89.15-17.15 89.15-13.25L89.15-13.25Q89.15-9.35 87.37-6.28 85.6-3.2 82.47-1.45 79.35 0.3 75.4 0.3L75.4 0.3ZM75.4-3.9Q77.95-3.9 79.97-5.08 82-6.25 83.15-8.38 84.3-10.5 84.3-13.25L84.3-13.25Q84.3-16 83.15-18.13 82-20.25 79.97-21.4 77.95-22.55 75.4-22.55L75.4-22.55Q72.85-22.55 70.82-21.4 68.8-20.25 67.62-18.13 66.45-16 66.45-13.25L66.45-13.25Q66.45-10.5 67.62-8.38 68.8-6.25 70.82-5.08 72.85-3.9 75.4-3.9L75.4-3.9ZM100.4-22.05Q101.65-24.35 104.09-25.55 106.55-26.75 110.05-26.75L110.05-26.75 110.05-22.1Q109.65-22.15 108.95-22.15L108.95-22.15Q105.05-22.15 102.82-19.83 100.59-17.5 100.59-13.2L100.59-13.2 100.59 0 95.8 0 95.8-26.5 100.4-26.5 100.4-22.05ZM123.99 0.3Q120.14 0.3 118.04-1.83 115.94-3.95 115.94-7.8L115.94-7.8 115.94-37.1 120.74-37.1 120.74-8.2Q120.74-6.05 121.77-4.9 122.79-3.75 124.84-3.75L124.84-3.75Q126.09-3.75 127.19-4.25L127.19-4.25 127.44-0.3Q125.79 0.3 123.99 0.3L123.99 0.3ZM151.69-37.1L156.49-37.1 156.49 0 151.89 0 151.89-4.2Q150.29-2 147.84-0.85 145.39 0.3 142.44 0.3L142.44 0.3Q138.59 0.3 135.54-1.4 132.49-3.1 130.77-6.18 129.04-9.25 129.04-13.25L129.04-13.25Q129.04-17.25 130.77-20.3 132.49-23.35 135.54-25.05 138.59-26.75 142.44-26.75L142.44-26.75Q145.29-26.75 147.69-25.68 150.09-24.6 151.69-22.5L151.69-22.5 151.69-37.1ZM142.84-3.9Q145.34-3.9 147.39-5.08 149.44-6.25 150.59-8.38 151.74-10.5 151.74-13.25L151.74-13.25Q151.74-16 150.59-18.13 149.44-20.25 147.39-21.4 145.34-22.55 142.84-22.55L142.84-22.55Q140.29-22.55 138.27-21.4 136.24-20.25 135.06-18.13 133.89-16 133.89-13.25L133.89-13.25Q133.89-10.5 135.06-8.38 136.24-6.25 138.27-5.08 140.29-3.9 142.84-3.9L142.84-3.9Z" opacity="1" transform="matrix(1,0,0,1,0,0)" fill="#000000" class="undefined-yy-1"></path></svg></g></svg></g></svg></g></svg></g></svg></g><g></g></svg></g><defs></defs></svg><rect width="380.06730535236096" height="49.753499999999995" fill="none" stroke="none" visibility="hidden"></rect></g></svg></g></svg>