<svg xmlns="http://www.w3.org/2000/svg" version="1.1" xmlns:xlink="http://www.w3.org/1999/xlink" xmlns:svgjs="http://svgjs.dev/svgjs" width="2000" height="247" viewBox="0 0 2000 247"><g transform="matrix(1,0,0,1,-1.2121212121212466,0.8527412098285652)"><svg viewBox="0 0 396 49" data-background-color="#ffffff" preserveAspectRatio="xMidYMid meet" height="247" width="2000" xmlns="http://www.w3.org/2000/svg" xmlns:xlink="http://www.w3.org/1999/xlink"><g id="tight-bounds" transform="matrix(1,0,0,1,0.2400000000000091,-0.16916728454089025)"><svg viewBox="0 0 395.52 49.338334569081795" height="49.338334569081795" width="395.52"><g><svg viewBox="0 0 395.52 49.338334569081795" height="49.338334569081795" width="395.52"><g><svg viewBox="0 0 738.5695257795599 92.131347" height="49.338334569081795" width="395.52"><g><svg viewBox="0 0 738.5695257795599 92.131347" height="92.131347" width="738.5695257795599"><g id="textblocktransform"><svg viewBox="0 0 738.5695257795599 92.131347" height="92.131347" width="738.5695257795599" id="textblock"><g><svg viewBox="0 0 738.5695257795599 92.131347" height="92.131347" width="738.5695257795599"><g><svg><g></g><g></g></svg></g><g><svg><g><svg></svg></g><g></g></svg></g><g id="text-0"><svg viewBox="0 0 738.5695257795599 92.131347" height="92.131347" width="738.5695257795599"><g transform="matrix(1,0,0,1,0,22.515673500000005)"><svg width="229.4" viewBox="5.25 -37.1 229.38 37.5" height="37.5" data-palette-color="#000000"><path d="M28.8-18.15Q31.85-17.3 33.6-15.08 35.35-12.85 35.35-9.45L35.35-9.45Q35.35-4.9 31.93-2.45 28.5 0 21.95 0L21.95 0 5.25 0 5.25-35 20.95-35Q26.95-35 30.23-32.6 33.5-30.2 33.5-25.95L33.5-25.95Q33.5-23.2 32.23-21.2 30.95-19.2 28.8-18.15L28.8-18.15ZM20.5-30.95L10.25-30.95 10.25-19.75 20.5-19.75Q24.35-19.75 26.43-21.18 28.5-22.6 28.5-25.35L28.5-25.35Q28.5-28.1 26.43-29.53 24.35-30.95 20.5-30.95L20.5-30.95ZM21.75-4.05Q26-4.05 28.15-5.45 30.3-6.85 30.3-9.85L30.3-9.85Q30.3-15.7 21.75-15.7L21.75-15.7 10.25-15.7 10.25-4.05 21.75-4.05ZM43.1 0L43.1-35 48.1-35 48.1-4.35 67.05-4.35 67.05 0 43.1 0ZM82.65 0.4Q78.7 0.4 75.02-0.83 71.35-2.05 69.25-4L69.25-4 71.1-7.9Q73.1-6.1 76.22-4.98 79.35-3.85 82.65-3.85L82.65-3.85Q87-3.85 89.15-5.33 91.3-6.8 91.3-9.25L91.3-9.25Q91.3-11.05 90.12-12.18 88.95-13.3 87.22-13.9 85.5-14.5 82.35-15.25L82.35-15.25Q78.4-16.2 75.97-17.15 73.55-18.1 71.82-20.08 70.1-22.05 70.1-25.4L70.1-25.4Q70.1-28.2 71.57-30.45 73.05-32.7 76.05-34.05 79.05-35.4 83.5-35.4L83.5-35.4Q86.6-35.4 89.6-34.6 92.6-33.8 94.75-32.3L94.75-32.3 93.1-28.3Q90.9-29.7 88.4-30.43 85.9-31.15 83.5-31.15L83.5-31.15Q79.25-31.15 77.12-29.6 75-28.05 75-25.6L75-25.6Q75-23.8 76.2-22.68 77.4-21.55 79.17-20.93 80.95-20.3 84-19.6L84-19.6Q87.95-18.65 90.35-17.7 92.75-16.75 94.47-14.8 96.2-12.85 96.2-9.55L96.2-9.55Q96.2-6.8 94.7-4.53 93.2-2.25 90.15-0.93 87.1 0.4 82.65 0.4L82.65 0.4ZM132.59 0.4Q127.34 0.4 123.12-1.93 118.89-4.25 116.49-8.33 114.09-12.4 114.09-17.5L114.09-17.5Q114.09-22.6 116.49-26.68 118.89-30.75 123.14-33.08 127.39-35.4 132.64-35.4L132.64-35.4Q136.74-35.4 140.14-34.02 143.54-32.65 145.94-29.95L145.94-29.95 142.69-26.8Q138.74-30.95 132.84-30.95L132.84-30.95Q128.94-30.95 125.79-29.2 122.64-27.45 120.87-24.38 119.09-21.3 119.09-17.5L119.09-17.5Q119.09-13.7 120.87-10.63 122.64-7.55 125.79-5.8 128.94-4.05 132.84-4.05L132.84-4.05Q138.69-4.05 142.69-8.25L142.69-8.25 145.94-5.1Q143.54-2.4 140.12-1 136.69 0.4 132.59 0.4L132.59 0.4ZM166.54-26.75Q171.59-26.75 174.56-23.83 177.54-20.9 177.54-15.25L177.54-15.25 177.54 0 172.74 0 172.74-14.7Q172.74-18.55 170.89-20.5 169.04-22.45 165.59-22.45L165.59-22.45Q161.69-22.45 159.44-20.18 157.19-17.9 157.19-13.65L157.19-13.65 157.19 0 152.39 0 152.39-37.1 157.19-37.1 157.19-22.75Q158.69-24.65 161.11-25.7 163.54-26.75 166.54-26.75L166.54-26.75ZM206.79-26.5L211.59-26.5 211.59 0 206.99 0 206.99-4.2Q205.39-2 202.94-0.85 200.49 0.3 197.54 0.3L197.54 0.3Q193.69 0.3 190.64-1.4 187.59-3.1 185.86-6.18 184.14-9.25 184.14-13.25L184.14-13.25Q184.14-17.25 185.86-20.3 187.59-23.35 190.64-25.05 193.69-26.75 197.54-26.75L197.54-26.75Q200.39-26.75 202.79-25.68 205.19-24.6 206.79-22.5L206.79-22.5 206.79-26.5ZM197.94-3.9Q200.44-3.9 202.49-5.08 204.54-6.25 205.69-8.38 206.84-10.5 206.84-13.25L206.84-13.25Q206.84-16 205.69-18.13 204.54-20.25 202.49-21.4 200.44-22.55 197.94-22.55L197.94-22.55Q195.39-22.55 193.36-21.4 191.34-20.25 190.16-18.13 188.99-16 188.99-13.25L188.99-13.25Q188.99-10.5 190.16-8.38 191.34-6.25 193.36-5.08 195.39-3.9 197.94-3.9L197.94-3.9ZM233.13-5L234.63-1.55Q233.58-0.65 232.03-0.18 230.48 0.3 228.83 0.3L228.83 0.3Q224.83 0.3 222.63-1.85 220.43-4 220.43-8L220.43-8 220.43-32.3 225.23-32.3 225.23-26.5 232.83-26.5 232.83-22.55 225.23-22.55 225.23-8.2Q225.23-6.05 226.31-4.9 227.38-3.75 229.38-3.75L229.38-3.75Q231.58-3.75 233.13-5L233.13-5Z" opacity="1" transform="matrix(1,0,0,1,0,0)" fill="#000000" class="undefined-yy-0"></path></svg></g><g><svg xmlns="http://www.w3.org/2000/svg" xmlns:xlink="http://www.w3.org/1999/xlink" version="1.1" x="247.6787" y="0" viewBox="15.991999999999997 27 68.01500008003524 46.56818207408713" enable-background="new 0 0 100 100" xml:space="preserve" height="92.131347" width="134.5621257795598" class="icon-cg-0" data-fill-palette-color="accent" id="cg-0"><path d="M63.08 33.979c-1.294 0-2.562 0.089-3.791 0.258-0.1 0.014-0.186 0.076-0.229 0.166-0.044 0.09-0.039 0.196 0.012 0.283 1.439 2.441 2.265 5.152 2.265 8.012 0 7.441-5.48 13.959-13.497 17.124-0.1 0.039-0.171 0.128-0.187 0.233-0.017 0.105 0.024 0.212 0.107 0.278 3.334 2.688 7.905 4.497 13.04 4.914 0.095 0.008 0.181 0.053 0.241 0.125 0.06 0.072 0.088 0.166 0.078 0.26-0.331 3.059-0.961 6.038-1.298 7.51-0.033 0.144 0.027 0.293 0.152 0.372 0.124 0.079 0.285 0.071 0.401-0.02 4.522-3.521 7.453-6.944 8.806-8.684 0.073-0.094 0.175-0.159 0.291-0.187 8.432-2.025 14.536-7.952 14.536-14.95C84.008 41.006 74.638 33.979 63.08 33.979z" fill="#f97809" data-fill-palette-color="accent"></path><path d="M57.85 42.697C57.85 34.028 48.479 27 36.922 27c-11.559 0-20.93 7.028-20.93 15.697 0 6.997 6.106 12.927 14.538 14.952 0.114 0.027 0.217 0.094 0.29 0.187 1.354 1.735 4.284 5.159 8.807 8.68 0.116 0.091 0.277 0.099 0.402 0.019 0.124-0.079 0.186-0.228 0.152-0.372-0.339-1.471-0.97-4.447-1.301-7.507-0.01-0.094 0.019-0.188 0.078-0.26 0.061-0.072 0.146-0.118 0.24-0.125C49.682 57.415 57.85 50.785 57.85 42.697z" fill="#f97809" data-fill-palette-color="accent"></path></svg></g><g transform="matrix(1,0,0,1,400.51952577955984,21.765673500000002)"><svg width="338.05" viewBox="4.95 -37.85 338.03000000000003 47.85" height="47.85" data-palette-color="#000000"><path d="M49.55-35L54.55-35 54.55-13.95Q54.55-6.85 51.03-3.23 47.5 0.4 40.95 0.4L40.95 0.4Q37.1 0.4 34.18-0.98 31.25-2.35 29.7-4.75L29.7-4.75Q28.1-2.35 25.25-0.98 22.4 0.4 18.5 0.4L18.5 0.4Q11.95 0.4 8.45-3.23 4.95-6.85 4.95-13.95L4.95-13.95 4.95-35 9.95-35 9.95-14.1Q9.95-4.05 18.5-4.05L18.5-4.05Q22.65-4.05 24.95-6.5 27.25-8.95 27.25-14.1L27.25-14.1 27.25-35 32.25-35 32.25-14.1Q32.25-8.95 34.52-6.5 36.8-4.05 40.95-4.05L40.95-4.05Q49.55-4.05 49.55-14.1L49.55-14.1 49.55-35ZM64.05 0L64.05-26.5 68.85-26.5 68.85 0 64.05 0ZM66.45-31.6Q65.05-31.6 64.12-32.5 63.2-33.4 63.2-34.7L63.2-34.7Q63.2-36 64.12-36.93 65.05-37.85 66.45-37.85L66.45-37.85Q67.85-37.85 68.77-36.98 69.7-36.1 69.7-34.8L69.7-34.8Q69.7-33.45 68.77-32.52 67.85-31.6 66.45-31.6L66.45-31.6ZM90.45-5L91.95-1.55Q90.9-0.65 89.35-0.18 87.8 0.3 86.15 0.3L86.15 0.3Q82.15 0.3 79.95-1.85 77.75-4 77.75-8L77.75-8 77.75-32.3 82.55-32.3 82.55-26.5 90.15-26.5 90.15-22.55 82.55-22.55 82.55-8.2Q82.55-6.05 83.62-4.9 84.7-3.75 86.7-3.75L86.7-3.75Q88.9-3.75 90.45-5L90.45-5ZM111.89-26.75Q116.94-26.75 119.92-23.83 122.89-20.9 122.89-15.25L122.89-15.25 122.89 0 118.09 0 118.09-14.7Q118.09-18.55 116.24-20.5 114.39-22.45 110.94-22.45L110.94-22.45Q107.04-22.45 104.79-20.18 102.54-17.9 102.54-13.65L102.54-13.65 102.54 0 97.74 0 97.74-37.1 102.54-37.1 102.54-22.75Q104.04-24.65 106.47-25.7 108.89-26.75 111.89-26.75L111.89-26.75ZM160.64-35.4Q167.64-35.4 171.69-31.33 175.74-27.25 175.74-19.65L175.74-19.65 175.74 0 170.74 0 170.74-9.65 150.54-9.65 150.54 0 145.64 0 145.64-19.65Q145.64-27.25 149.69-31.33 153.74-35.4 160.64-35.4L160.64-35.4ZM150.54-14L170.74-14 170.74-20.1Q170.74-25.45 168.06-28.2 165.39-30.95 160.64-30.95L160.64-30.95Q155.89-30.95 153.21-28.2 150.54-25.45 150.54-20.1L150.54-20.1 150.54-14ZM199.38-26.75Q204.44-26.75 207.41-23.83 210.38-20.9 210.38-15.25L210.38-15.25 210.38 0 205.59 0 205.59-14.7Q205.59-18.55 203.74-20.5 201.88-22.45 198.44-22.45L198.44-22.45Q194.53-22.45 192.28-20.18 190.03-17.9 190.03-13.65L190.03-13.65 190.03 0 185.24 0 185.24-26.5 189.84-26.5 189.84-22.5Q191.28-24.55 193.76-25.65 196.24-26.75 199.38-26.75L199.38-26.75ZM239.18-26.5L243.98-26.5 243.98-3.6Q243.98 3.35 240.73 6.68 237.48 10 230.98 10L230.98 10Q227.43 10 224.21 8.97 220.98 7.95 218.93 6.05L218.93 6.05 221.28 2.35Q223.03 3.95 225.51 4.85 227.98 5.75 230.73 5.75L230.73 5.75Q235.08 5.75 237.13 3.58 239.18 1.4 239.18-3.1L239.18-3.1 239.18-5.05Q237.73-3.15 235.43-2.13 233.13-1.1 230.43-1.1L230.43-1.1Q225.13-1.1 222.08-4 219.03-6.9 219.03-12.6L219.03-12.6 219.03-26.5 223.83-26.5 223.83-13.15Q223.83-9.35 225.68-7.38 227.53-5.4 230.98-5.4L230.98-5.4Q234.78-5.4 236.98-7.7 239.18-10 239.18-14.2L239.18-14.2 239.18-26.5ZM264.48 0.3Q260.53 0.3 257.38-1.45 254.23-3.2 252.46-6.28 250.68-9.35 250.68-13.25L250.68-13.25Q250.68-17.15 252.46-20.23 254.23-23.3 257.38-25.03 260.53-26.75 264.48-26.75L264.48-26.75Q268.43-26.75 271.56-25.03 274.68-23.3 276.46-20.23 278.23-17.15 278.23-13.25L278.23-13.25Q278.23-9.35 276.46-6.28 274.68-3.2 271.56-1.45 268.43 0.3 264.48 0.3L264.48 0.3ZM264.48-3.9Q267.03-3.9 269.06-5.08 271.08-6.25 272.23-8.38 273.38-10.5 273.38-13.25L273.38-13.25Q273.38-16 272.23-18.13 271.08-20.25 269.06-21.4 267.03-22.55 264.48-22.55L264.48-22.55Q261.93-22.55 259.91-21.4 257.88-20.25 256.71-18.13 255.53-16 255.53-13.25L255.53-13.25Q255.53-10.5 256.71-8.38 257.88-6.25 259.91-5.08 261.93-3.9 264.48-3.9L264.48-3.9ZM299.03-26.75Q304.08-26.75 307.05-23.83 310.03-20.9 310.03-15.25L310.03-15.25 310.03 0 305.23 0 305.23-14.7Q305.23-18.55 303.38-20.5 301.53-22.45 298.08-22.45L298.08-22.45Q294.18-22.45 291.93-20.18 289.68-17.9 289.68-13.65L289.68-13.65 289.68 0 284.88 0 284.88-26.5 289.48-26.5 289.48-22.5Q290.93-24.55 293.4-25.65 295.88-26.75 299.03-26.75L299.03-26.75ZM331.03-3.9Q335.78-3.9 338.68-7.1L338.68-7.1 341.28-4Q339.53-1.9 336.85-0.8 334.18 0.3 330.88 0.3L330.88 0.3Q326.68 0.3 323.43-1.43 320.18-3.15 318.4-6.25 316.63-9.35 316.63-13.25L316.63-13.25Q316.63-17.1 318.35-20.2 320.08-23.3 323.1-25.03 326.13-26.75 329.93-26.75L329.93-26.75Q333.53-26.75 336.48-25.13 339.43-23.5 341.18-20.55 342.93-17.6 342.98-13.75L342.98-13.75 321.93-9.65Q322.93-6.9 325.3-5.4 327.68-3.9 331.03-3.9L331.03-3.9ZM329.93-22.7Q327.43-22.7 325.45-21.55 323.48-20.4 322.38-18.32 321.28-16.25 321.28-13.5L321.28-13.5 321.28-13 338.23-16.2Q337.58-19.1 335.33-20.9 333.08-22.7 329.93-22.7L329.93-22.7Z" opacity="1" transform="matrix(1,0,0,1,0,0)" fill="#000000" class="undefined-yy-1"></path></svg></g></svg></g></svg></g></svg></g></svg></g><g></g></svg></g></svg></g><defs></defs></svg><rect width="395.52" height="49.338334569081795" fill="none" stroke="none" visibility="hidden"></rect></g></svg></g></svg>